<svg width="126" height="152" viewBox="0 0 126 152" fill="none" xmlns="http://www.w3.org/2000/svg">
    <path d="M113.695 25.3244H112.916V50.7025H113.695V25.3244Z" fill="#9B9B9B"/>
    <path d="M112.379 26.1033L106.979 31.6354L106.898 31.716L106.845 31.7697V31.6354L112.352 26.1033H112.379Z" fill="#9B9B9B"/>
    <path d="M19.1821 120.15V120.365L19.1552 120.392V120.445H19.1015L13.6477 125.897H13.594L18.9134 120.445L18.9671 120.392L19.0746 120.257L19.1552 120.177L19.1821 120.15Z" fill="#9B9B9B"/>
    <path d="M107.651 31.6354H106.845V120.365H107.651V31.6354Z" fill="#9B9B9B"/>
    <path d="M19.1551 33.7838H18.376V120.445H19.1551V33.7838Z" fill="#9B9B9B"/>
    <path d="M19.1551 31.6085H18.376V120.392H19.1551V31.6085Z" fill="#9B9B9B"/>
    <path d="M113.722 25.3244H75.0895V26.1032H113.722V25.3244Z" fill="#9B9B9B"/>
    <path d="M50.9373 25.3244H12.3044V26.1032H50.9373V25.3244Z" fill="#9B9B9B"/>
    <path d="M50.9373 125.897H12.3044V126.676H50.9373V125.897Z" fill="#9B9B9B"/>
    <path d="M113.642 125.897H75.0895V126.676H113.642V125.897Z" fill="#9B9B9B"/>
    <path d="M13.0835 25.3244V26.6672L13.0567 26.6134H12.3044V25.3244H13.0835Z" fill="#9B9B9B"/>
    <path d="M13.0835 26.3449H12.3044V50.7025H13.0835V26.3449Z" fill="#9B9B9B"/>
    <path d="M63.3761 4.35065H62.597V14.0185H63.3761V4.35065Z" fill="#9B9B9B"/>
    <path d="M63.3761 138.143H62.597V147.811H63.3761V138.143Z" fill="#9B9B9B"/>
    <path d="M13.0835 101.324H12.3044V126.407H13.0835V101.324Z" fill="#9B9B9B"/>
    <path d="M113.695 101.324H112.916V126.702H113.695V101.324Z" fill="#9B9B9B"/>
    <path d="M63.5641 13.4813L63 14.0452L50.9373 26.1032L50.3731 25.5392L63 12.9173L63.5641 13.4813Z" fill="#9B9B9B"/>
    <path d="M75.6537 126.461L75.4119 126.676L63 139.083L62.4358 138.519L63 137.982L75.0895 125.897L75.6537 126.461Z" fill="#9B9B9B"/>
    <path d="M19.1821 120.15V120.365L19.1552 120.392V120.177L19.1821 120.15Z" fill="#9B9B9B"/>
    <path d="M19.1552 31.6086V31.6354V31.6086H19.1283L14.0238 26.6404L13.6477 26.2913L13.4597 26.1033H13.6477L14.1582 26.6135L19.1552 31.6086Z" fill="#9B9B9B"/>
    <path d="M112.513 125.897H112.352L106.845 120.365L112.513 125.897Z" fill="#9B9B9B"/>
    <path d="M50.3755 126.459L63.0083 139.087L63.5782 138.517L50.9454 125.89L50.3755 126.459Z" fill="#9B9B9B"/>
    <path d="M75.6537 25.5392L75.0895 26.1032L63 14.0452L62.4358 13.4813L63 12.9173L63.5641 13.4813L75.6537 25.5392Z" fill="#9B9B9B"/>
    <path d="M13.6477 26.1032V26.6134H13.0835V26.6672L13.0567 26.6134L12.5462 26.1032L12.3044 25.8615L12.8686 25.3244L13.0835 25.5392L13.6477 26.1032Z" fill="#9B9B9B"/>
    <path d="M19.1552 31.6085L18.591 32.1725L18.3761 31.9308L13.0835 26.6672L13.0567 26.6134L12.7612 26.3449L12.5462 26.1032L12.3044 25.8615L12.8686 25.3244L13.0835 25.5392L19.1552 31.6085Z" fill="#9B9B9B"/>
    <path d="M19.1821 120.365L12.8686 126.676L12.5731 126.407L12.3044 126.139L12.5194 125.897L13.0835 125.333L18.3761 120.069L18.6179 119.801L19.0746 120.257L19.1552 120.338L19.1821 120.365Z" fill="#9B9B9B"/>
    <path d="M113.722 126.139L113.642 126.192L113.158 126.676L106.845 120.365L107.382 119.801L113.481 125.897L113.642 126.058L113.722 126.139Z" fill="#9B9B9B"/>
    <path d="M113.722 25.8615L113.481 26.1032L112.916 26.6672L107.624 31.9576L107.409 32.1993L106.845 31.6354L112.352 26.1032H112.379L112.916 25.5392L113.158 25.3244L113.722 25.8615Z" fill="#9B9B9B"/>
    <path d="M65.2566 2.25583L62.9999 4.48481L42.179 25.2975H37.6924L60.7432 2.25583L62.9999 0L65.2566 2.25583Z" fill="#484B52"/>
    <path d="M89.1134 26.1032H84.6268L60.7432 2.25583L62.9999 0L89.1134 26.1032Z" fill="#484B52"/>
    <path d="M113.722 50.7025H109.209L107.624 49.0912L106.818 48.3124V43.8276L107.624 44.6064L112.057 49.0375L112.916 49.8968L113.695 50.6756L113.722 50.7025Z" fill="#484B52"/>
    <path d="M112.057 49.0375L110.391 50.7025H109.209L81.6716 23.176V18.6912L82.4775 19.47L88.3074 25.3244L88.5492 25.5661L89.1134 26.1032L106.818 43.8276L107.624 44.6064L112.057 49.0375Z" fill="#484B52"/>
    <path d="M19.1552 103.688V108.172L18.3492 107.367L13.0835 102.103L12.3044 101.324H16.791L18.3492 102.882L19.1552 103.688Z" fill="#484B52"/>
    <path d="M41.6418 126.165V130.65L19.1552 108.172L18.3492 107.367L13.0835 102.103L12.3044 101.324H16.7641L18.3492 102.882L19.1552 103.688L34.791 119.317L35.5701 120.096L41.3731 125.897L41.6418 126.165Z" fill="#484B52"/>
    <path d="M63.4298 147.945L61.173 150.174L37.6656 126.676L36.8865 125.897H41.373L42.1521 126.676L62.9999 147.515L63.4298 147.945Z" fill="#484B52"/>
    <path d="M83.8477 126.676H88.3343L62.9999 152L61.1731 150.174L60.7701 149.744L62.9999 147.515L83.8477 126.676Z" fill="#484B52"/>
    <path d="M10.0478 70.817V73.3414H17.8925V77.9873C17.2209 78.6587 16.3612 79.2226 15.2597 79.706C14.1851 80.1894 13.003 80.4311 11.7403 80.4311C9.24179 80.4311 7.14627 79.5449 5.45373 77.7993C3.78806 76.0269 2.92836 73.8248 2.92836 71.1124C2.92836 68.4269 3.76119 66.1979 5.45373 64.4523C7.14627 62.7067 9.24179 61.8205 11.7403 61.8205C13.0567 61.8205 14.3194 62.1159 15.5015 62.6799C16.6836 63.2438 17.6239 64.0226 18.3492 64.9894L20.606 63.593C18.2955 60.7463 15.3403 59.323 11.7403 59.323C8.43582 59.323 5.64178 60.4241 3.38507 62.5993C1.12835 64.8014 0 67.6212 0 71.1124C0 74.6036 1.12835 77.4502 3.38507 79.6523C5.64178 81.8545 8.43582 82.9555 11.7403 82.9555C15.3672 82.9555 18.3761 81.6396 20.7134 79.0078V70.7633H10.0478V70.817Z" fill="#484B52"/>
    <path d="M42.6359 73.2608C44.3016 73.1265 45.6986 72.482 46.8538 71.3004C48.0091 70.1456 48.5732 68.588 48.5732 66.6007C48.5732 64.5329 47.9016 62.8679 46.5852 61.6057C45.2688 60.3435 43.5493 59.7258 41.4001 59.7258H32.212V82.5795H35.0598V73.5025H39.627L45.4568 82.5795H48.815L42.6359 73.2608ZM35.0598 71.005V62.2771H41.0508C42.3941 62.2771 43.4956 62.6799 44.3285 63.4855C45.1613 64.2912 45.5911 65.3386 45.5911 66.6276C45.5911 67.9166 45.1613 68.964 44.3285 69.7696C43.4688 70.6022 42.3941 71.005 41.0508 71.005H35.0598Z" fill="#484B52"/>
    <path d="M72.2955 59.7258H68.7761L59.5881 82.5795H62.8388L64.8537 77.5039H76.2448L78.2597 82.5795H81.5105L72.2955 59.7258ZM65.6866 74.9795L70.5493 62.6799L75.3851 74.9795H65.6866Z" fill="#484B52"/>
    <path d="M108.806 59.7258V77.5845L95.6418 59.7258H92.7403V82.5795H95.588V64.3718L108.913 82.5795H111.654V59.7258H108.806Z" fill="#484B52"/>
    <path d="M123.152 82.5795H126V65.4191H123.152V82.5795ZM123.152 59.7258V62.5725H126V59.7258H123.152Z" fill="#484B52"/>
    <path d="M5.45375 92.6771C5.74928 92.9993 5.88361 93.3753 5.88361 93.8318C5.88361 94.2615 5.74928 94.6375 5.50749 94.9598C5.23883 95.282 4.91644 95.5237 4.48659 95.6848C4.05674 95.846 3.60003 95.9265 3.08958 95.9265C2.606 95.9265 2.12241 95.846 1.66569 95.6848C1.20898 95.5237 0.779124 95.2552 0.429871 94.9329L0.644801 94.5569C0.967189 94.8523 1.34331 95.094 1.7463 95.2283C2.17615 95.3894 2.57913 95.4431 3.03584 95.4431C3.43883 95.4431 3.84181 95.3626 4.19106 95.2283C4.54032 95.094 4.83584 94.906 5.05077 94.6375C5.2657 94.3689 5.37316 94.0735 5.37316 93.7244C5.37316 93.2679 5.1851 92.8919 4.83585 92.6234C4.45973 92.3548 3.94928 92.2474 3.3045 92.2474H1.80002V91.7908H3.3045C3.86868 91.7908 4.29853 91.6566 4.62092 91.4149C4.94331 91.1732 5.1045 90.8509 5.1045 90.4212C5.1045 89.9378 4.91644 89.5619 4.51346 89.2933C4.11047 89.0248 3.62689 88.8905 3.03584 88.8905C2.68659 88.8905 2.31047 88.9442 1.96122 89.0516C1.61196 89.159 1.26271 89.3202 0.913458 89.535L0.725395 89.0785C1.10151 88.8636 1.47764 88.6756 1.88062 88.5682C2.28361 88.4608 2.65973 88.4071 3.06271 88.4071C3.54629 88.4071 3.97614 88.4877 4.37913 88.6488C4.78211 88.8099 5.1045 89.0248 5.31943 89.3202C5.56122 89.6156 5.66868 89.9647 5.66868 90.3675C5.66868 90.7704 5.56122 91.1195 5.31943 91.388C5.1045 91.6834 4.78211 91.8714 4.37913 92.0057C4.78211 92.14 5.1851 92.3548 5.45375 92.6771Z" fill="#9B9B9B"/>
    <path d="M13.191 95.3894V95.8728H8.11334V88.5145H13.0298V88.9979H8.65066V91.8983H12.573V92.3817H8.65066V95.3894H13.191Z" fill="#9B9B9B"/>
    <path d="M19.9343 89.159C20.4716 89.5887 20.7134 90.2064 20.7134 90.9852C20.7134 91.764 20.4448 92.3548 19.9343 92.8113C19.397 93.241 18.6716 93.4559 17.7582 93.4559H15.6627V95.8728H15.1254V88.5145H17.7582C18.6716 88.5145 19.397 88.7294 19.9343 89.159ZM19.5582 92.4622C19.9612 92.1131 20.1761 91.6297 20.1761 90.9852C20.1761 90.3407 19.9612 89.8573 19.5582 89.5082C19.1552 89.159 18.5373 88.9979 17.7582 88.9979H15.6627V92.9725H17.7582C18.5373 92.9725 19.1284 92.8113 19.5582 92.4622Z" fill="#9B9B9B"/>
    <path d="M24.8508 92.3817H23.0777V95.8728H22.5403V88.5145H23.0777V91.8983H24.8508L27.4836 88.5145H28.0747L25.2538 92.1131L28.2627 95.8997H27.618L24.8508 92.3817Z" fill="#9B9B9B"/>
    <path d="M34.3343 93.805H30.0627L29.1224 95.8728H28.5313L31.9164 88.5145H32.4537L35.8388 95.8728H35.2477L34.3343 93.805ZM34.1462 93.3484L32.2119 89.1053L30.2776 93.3484H34.1462Z" fill="#9B9B9B"/>
    <path d="M43.0926 88.5145V95.8728H42.5552V88.9979H38.7403L38.6329 91.7103C38.5791 92.7308 38.4985 93.5364 38.3642 94.1541C38.2299 94.7718 38.0418 95.2283 37.8 95.5237C37.5582 95.8191 37.209 95.9534 36.806 95.9534C36.6179 95.9534 36.4299 95.9265 36.2687 95.8997L36.3224 95.4163C36.4299 95.4431 36.5642 95.47 36.6717 95.47C36.994 95.47 37.2627 95.3357 37.4508 95.094C37.6388 94.8523 37.8 94.4495 37.9075 93.9124C38.0149 93.3753 38.0955 92.6502 38.1224 91.764L38.2299 88.5682H43.0926V88.5145Z" fill="#9B9B9B"/>
    <path d="M50.803 91.7908C51.2597 92.1668 51.4746 92.7576 51.4746 93.5096C51.4746 94.2884 51.2328 94.8792 50.7492 95.282C50.2657 95.6848 49.5671 95.8997 48.6806 95.8997H45.8597V88.5414H46.397V91.2269H48.8149C49.7015 91.2 50.3462 91.388 50.803 91.7908ZM50.3731 94.9329C50.7492 94.6106 50.9373 94.1272 50.9373 93.5096C50.9373 92.2742 50.1851 91.6566 48.7074 91.6566H46.4239V95.4163H48.7074C49.4328 95.4163 49.997 95.2552 50.3731 94.9329Z" fill="#9B9B9B"/>
    <path d="M59.4537 88.5145V95.8728H58.9164V92.3817H54V95.8728H53.4627V88.5145H54V91.8983H58.9164V88.5145H59.4537Z" fill="#9B9B9B"/>
    <path d="M66.8955 93.805H62.6239L61.6836 95.8728H61.0925L64.4776 88.5145H65.0149L68.4 95.8728H67.8089L66.8955 93.805ZM66.6806 93.3484L64.7463 89.1053L62.8119 93.3484H66.6806Z" fill="#9B9B9B"/>
    <path d="M74.7941 88.5145V95.8728H74.2567V93.5632H71.9194C71.7314 93.5632 71.5702 93.5632 71.409 93.5364L69.7702 95.8728H69.1791L70.8717 93.429C70.3344 93.2678 69.9045 92.9993 69.609 92.5964C69.3135 92.1936 69.1791 91.6834 69.1791 91.0657C69.1791 90.26 69.4209 89.6155 69.9314 89.159C70.4418 88.7025 71.1403 88.4876 72 88.4876H74.7941V88.5145ZM70.3075 92.5696C70.6836 92.9187 71.2478 93.1067 71.9732 93.1067H74.2567V88.9979H72.0538C71.3015 88.9979 70.7373 89.1858 70.3344 89.535C69.9314 89.8841 69.7165 90.3943 69.7165 91.0657C69.7165 91.7102 69.9045 92.2205 70.3075 92.5696Z" fill="#9B9B9B"/>
    <path d="M86.4537 88.5145V95.8728H85.9164V88.9979H80.9194V95.8728H80.3821V88.5145H86.4537Z" fill="#9B9B9B"/>
    <path d="M94.6746 88.5145V95.8728H94.1373V88.9979H90.3224L90.2149 91.7103C90.1612 92.7308 90.0806 93.5364 89.9463 94.1541C89.812 94.7718 89.6239 95.2283 89.3821 95.5237C89.1403 95.8191 88.7911 95.9534 88.3881 95.9534C88.2 95.9534 88.012 95.9265 87.8508 95.8997L87.9045 95.4163C88.012 95.4431 88.1463 95.47 88.2538 95.47C88.5761 95.47 88.8448 95.3357 89.0328 95.094C89.2209 94.8523 89.3821 94.4495 89.4896 93.9124C89.597 93.3753 89.6776 92.6502 89.7045 91.764L89.812 88.5682H94.6746V88.5145Z" fill="#9B9B9B"/>
    <path d="M97.4418 88.5145H97.9791V94.9866L103.003 88.5145H103.487V95.8728H102.949V89.4276L97.9254 95.8728H97.4418V88.5145Z" fill="#9B9B9B"/>
    <path d="M110.875 88.9979H108.215V95.8728H107.678V88.9979H105.018V88.5145H110.848V88.9979H110.875Z" fill="#9B9B9B"/>
    <path d="M114.743 92.3817H112.97V95.8728H112.433V88.5145H112.97V91.8983H114.743L117.376 88.5145H117.967L115.146 92.1131L118.155 95.8997H117.51L114.743 92.3817Z" fill="#9B9B9B"/>
    <path d="M124.2 93.805H119.928L118.988 95.8728H118.424L121.809 88.5145H122.346L125.731 95.8728H125.14L124.2 93.805ZM124.012 93.3484L122.078 89.1053L120.143 93.3484H124.012Z" fill="#9B9B9B"/>
</svg>
